<?xml version="1.0" standalone="no"?><!DOCTYPE svg PUBLIC "-//W3C//DTD SVG 1.1//EN" "http://www.w3.org/Graphics/SVG/1.1/DTD/svg11.dtd"><svg t="1517195361013" class="icon" style="" viewBox="0 0 1024 1024" version="1.1" xmlns="http://www.w3.org/2000/svg" p-id="28892" xmlns:xlink="http://www.w3.org/1999/xlink" width="32" height="32"><defs><style type="text/css"></style></defs><path d="M383.147842 117.856221l258.228249 0c6.78145 0 12.279674-5.498224 12.279674-12.279674L653.655765 76.30078c0-6.78145-5.498224-12.279674-12.279674-12.279674L383.147842 64.021106c-6.78145 0-12.279674 5.498224-12.279674 12.279674l0 29.275767C370.868167 112.359021 376.365368 117.856221 383.147842 117.856221z" p-id="28893" fill="#1296db"></path><path d="M897.707131 64.644299 753.559103 64.644299c-12.758582 1.291412-18.139126 15.861246-18.139126 15.861246l-45.598524 74.743308c0 0-3.367701 4.63967-5.055133 5.586229-1.450025 0.813528-5.628184 1.023306-5.628184 1.023306l-337.435219 0c0 0-3.177366-0.36532-4.349051-1.023306-0.859577-0.483001-3.077082-2.343371-3.077082-2.343371l-47.576575-77.986165c0 0-5.380544-14.569834-18.139126-15.861246L124.824425 64.644299c-22.605857 0-40.932248 18.326391-40.932248 40.932248l0 812.960493c0 22.606881 18.326391 40.932248 40.932248 40.932248l772.881682 0c22.605857 0 40.932248-18.325367 40.932248-40.932248L938.638355 105.576547C938.639379 82.97069 920.312988 64.644299 897.707131 64.644299zM755.986385 750.259452c0 6.78145-5.498224 12.279674-12.279674 12.279674L280.817222 762.539126c-6.78145 0-12.279674-5.498224-12.279674-12.279674L268.537548 720.983685c0-6.78145 5.498224-12.279674 12.279674-12.279674l462.889489 0c6.78145 0 12.279674 5.498224 12.279674 12.279674L755.986385 750.259452zM755.986385 581.413929c0 6.78145-5.498224 12.279674-12.279674 12.279674L280.817222 593.693604c-6.78145 0-12.279674-5.498224-12.279674-12.279674L268.537548 552.138162c0-6.78145 5.498224-12.279674 12.279674-12.279674l462.889489 0c6.78145 0 12.279674 5.498224 12.279674 12.279674L755.986385 581.413929zM755.986385 412.568407c0 6.78145-5.498224 12.279674-12.279674 12.279674L280.817222 424.848081c-6.78145 0-12.279674-5.498224-12.279674-12.279674L268.537548 383.29264c0-6.78145 5.498224-12.279674 12.279674-12.279674l462.889489 0c6.78145 0 12.279674 5.498224 12.279674 12.279674L755.986385 412.568407z" p-id="28894" fill="#1296db"></path></svg>